<svg width="80" height="80" viewBox="0 0 80 80" fill="none" xmlns="http://www.w3.org/2000/svg">
  <!-- Head -->
  <circle cx="40" cy="40" r="32" fill="#8D5524" stroke="#1a1a1a" stroke-width="2"/>
  <!-- Hair - Curly/Afro style -->
  <path d="M10 38C8 24 20 8 40 8C60 8 72 24 70 38C72 36 74 32 72 26C70 18 60 8 40 8C20 8 10 18 8 26C6 32 8 36 10 38Z" fill="#1a1a1a"/>
  <circle cx="18" cy="28" r="6" fill="#1a1a1a"/>
  <circle cx="28" cy="18" r="7" fill="#1a1a1a"/>
  <circle cx="40" cy="14" r="8" fill="#1a1a1a"/>
  <circle cx="52" cy="18" r="7" fill="#1a1a1a"/>
  <circle cx="62" cy="28" r="6" fill="#1a1a1a"/>
  <circle cx="14" cy="38" r="5" fill="#1a1a1a"/>
  <circle cx="66" cy="38" r="5" fill="#1a1a1a"/>
  <!-- Eyes -->
  <ellipse cx="30" cy="40" rx="3" ry="4" fill="#1a1a1a"/>
  <ellipse cx="50" cy="40" rx="3" ry="4" fill="#1a1a1a"/>
  <!-- Eye shine -->
  <circle cx="31" cy="39" r="1" fill="white"/>
  <circle cx="51" cy="39" r="1" fill="white"/>
  <!-- Eyebrows -->
  <path d="M25 34C28 32 32 32 35 34" stroke="#1a1a1a" stroke-width="2" stroke-linecap="round"/>
  <path d="M45 34C48 32 52 32 55 34" stroke="#1a1a1a" stroke-width="2" stroke-linecap="round"/>
  <!-- Nose -->
  <path d="M38 45C37 47 38 50 42 50C43 50 43 47 42 45" stroke="#1a1a1a" stroke-width="1.5" stroke-linecap="round"/>
  <!-- Big smile -->
  <path d="M30 54C34 60 46 60 50 54" stroke="#1a1a1a" stroke-width="2" stroke-linecap="round" fill="none"/>
  <path d="M32 56C36 58 44 58 48 56" stroke="#1a1a1a" stroke-width="1" stroke-linecap="round" fill="none"/>
</svg>
