<svg width="80" height="80" viewBox="0 0 80 80" fill="none" xmlns="http://www.w3.org/2000/svg">
  <!-- Head -->
  <circle cx="40" cy="40" r="32" fill="#FFECD2" stroke="#1a1a1a" stroke-width="2"/>
  <!-- Hair - Short wavy -->
  <path d="M16 32C16 20 26 10 40 10C54 10 64 20 64 32C64 28 58 22 50 22C42 22 36 26 32 24C28 22 22 24 18 28C16 30 16 32 16 32Z" fill="#4A3728" stroke="#1a1a1a" stroke-width="1.5"/>
  <!-- Eyes -->
  <ellipse cx="30" cy="38" rx="3" ry="4" fill="#1a1a1a"/>
  <ellipse cx="50" cy="38" rx="3" ry="4" fill="#1a1a1a"/>
  <!-- Eyebrows -->
  <path d="M25 32C27 30 33 30 35 32" stroke="#1a1a1a" stroke-width="1.5" stroke-linecap="round"/>
  <path d="M45 32C47 30 53 30 55 32" stroke="#1a1a1a" stroke-width="1.5" stroke-linecap="round"/>
  <!-- Nose -->
  <path d="M40 42C38 44 38 48 40 50" stroke="#1a1a1a" stroke-width="1.5" stroke-linecap="round"/>
  <!-- Smile -->
  <path d="M32 54C36 58 44 58 48 54" stroke="#1a1a1a" stroke-width="2" stroke-linecap="round" fill="none"/>
  <!-- Glasses -->
  <circle cx="30" cy="38" r="8" stroke="#1a1a1a" stroke-width="1.5" fill="none"/>
  <circle cx="50" cy="38" r="8" stroke="#1a1a1a" stroke-width="1.5" fill="none"/>
  <path d="M38 38H42" stroke="#1a1a1a" stroke-width="1.5"/>
</svg>
