<?xml version="1.0" encoding="UTF-8"?>
<svg width="512" height="512" viewBox="0 0 512 512" fill="none" xmlns="http://www.w3.org/2000/svg">
  <defs>
    <radialGradient id="iconBloom" cx="50%" cy="50%" r="50%">
      <stop offset="0%" style="stop-color:#9333EA;stop-opacity:1" />
      <stop offset="100%" style="stop-color:#6B46C1;stop-opacity:1" />
    </radialGradient>

    <linearGradient id="iconAccent" x1="0%" y1="0%" x2="100%" y2="100%">
      <stop offset="0%" style="stop-color:#06B6D4;stop-opacity:1" />
      <stop offset="100%" style="stop-color:#14B8A6;stop-opacity:1" />
    </linearGradient>
  </defs>

  <!-- Rounded square background -->
  <rect x="0" y="0" width="512" height="512" rx="128" fill="url(#iconBloom)"/>

  <!-- Simplified radial branches (6 main spokes) -->
  <!-- Top -->
  <path d="M 256 256 L 256 100" stroke="url(#iconAccent)" stroke-width="24" stroke-linecap="round"/>
  <circle cx="256" cy="90" r="28" fill="url(#iconAccent)"/>
  <circle cx="256" cy="90" r="16" fill="white" opacity="0.7"/>

  <!-- Top-Right -->
  <path d="M 256 256 L 391 150" stroke="url(#iconAccent)" stroke-width="24" stroke-linecap="round"/>
  <circle cx="400" cy="140" r="28" fill="url(#iconAccent)"/>
  <circle cx="400" cy="140" r="16" fill="white" opacity="0.7"/>

  <!-- Bottom-Right -->
  <path d="M 256 256 L 391 362" stroke="url(#iconAccent)" stroke-width="24" stroke-linecap="round"/>
  <circle cx="400" cy="372" r="28" fill="url(#iconAccent)"/>
  <circle cx="400" cy="372" r="16" fill="white" opacity="0.7"/>

  <!-- Bottom -->
  <path d="M 256 256 L 256 412" stroke="url(#iconAccent)" stroke-width="24" stroke-linecap="round"/>
  <circle cx="256" cy="422" r="28" fill="url(#iconAccent)"/>
  <circle cx="256" cy="422" r="16" fill="white" opacity="0.7"/>

  <!-- Bottom-Left -->
  <path d="M 256 256 L 121 362" stroke="url(#iconAccent)" stroke-width="24" stroke-linecap="round"/>
  <circle cx="112" cy="372" r="28" fill="url(#iconAccent)"/>
  <circle cx="112" cy="372" r="16" fill="white" opacity="0.7"/>

  <!-- Top-Left -->
  <path d="M 256 256 L 121 150" stroke="url(#iconAccent)" stroke-width="24" stroke-linecap="round"/>
  <circle cx="112" cy="140" r="28" fill="url(#iconAccent)"/>
  <circle cx="112" cy="140" r="16" fill="white" opacity="0.7"/>

  <!-- Central core -->
  <circle cx="256" cy="256" r="80" fill="white"/>
  <circle cx="256" cy="256" r="60" fill="url(#iconAccent)" opacity="0.9"/>
  <circle cx="256" cy="256" r="35" fill="white"/>
</svg>
