<?xml version="1.0" encoding="UTF-8"?>
<svg width="140" height="140" viewBox="0 0 140 140" fill="none" xmlns="http://www.w3.org/2000/svg">
  <defs>
    <!-- Brain gradient -->
    <linearGradient id="brainGradient" x1="0%" y1="0%" x2="100%" y2="0%">
      <stop offset="0%" style="stop-color:#2D3E9F;stop-opacity:1" />
      <stop offset="35%" style="stop-color:#7B3FF2;stop-opacity:1" />
      <stop offset="50%" style="stop-color:#E91E8C;stop-opacity:1" />
      <stop offset="70%" style="stop-color:#FF4081;stop-opacity:1" />
      <stop offset="100%" style="stop-color:#FF6B35;stop-opacity:1" />
    </linearGradient>
  </defs>

  <!-- Brain Icon (Centered and Scaled) -->
  <g transform="translate(10, 20) scale(1.2)">
    <!-- Left hemisphere (Blue) -->
    <path d="M 30 70 Q 15 50, 20 30 Q 25 15, 40 10 Q 50 8, 60 15 L 60 35 Q 55 45, 50 55 L 45 70 Q 38 80, 30 70 Z" fill="#2D3E9F"/>
    <circle cx="35" cy="35" r="5" fill="white" opacity="0.9"/>
    <circle cx="50" cy="20" r="4" fill="white" opacity="0.9"/>
    <circle cx="45" cy="50" r="4" fill="white" opacity="0.9"/>
    <line x1="35" y1="35" x2="50" y2="20" stroke="white" stroke-width="2" opacity="0.7"/>
    <line x1="35" y1="35" x2="45" y2="50" stroke="white" stroke-width="2" opacity="0.7"/>
    <line x1="50" y1="20" x2="45" y2="50" stroke="white" stroke-width="2" opacity="0.7"/>

    <!-- Center/Top (Pink) -->
    <path d="M 60 15 Q 70 8, 80 10 Q 90 12, 95 20 Q 100 30, 95 40 L 85 50 Q 80 55, 70 52 L 60 35 Z" fill="#E91E8C"/>
    <circle cx="75" cy="25" r="5" fill="white" opacity="0.9"/>
    <circle cx="85" cy="40" r="4" fill="white" opacity="0.9"/>
    <line x1="75" y1="25" x2="85" y2="40" stroke="white" stroke-width="2" opacity="0.7"/>

    <!-- Center connections -->
    <line x1="60" y1="35" x2="70" y2="52" stroke="white" stroke-width="2" opacity="0.5"/>
    <circle cx="65" cy="44" r="3" fill="white" opacity="0.8"/>

    <!-- Right hemisphere (Orange) -->
    <path d="M 95 40 Q 105 50, 110 65 Q 112 75, 105 85 Q 95 95, 85 90 L 75 75 Q 70 65, 70 52 L 85 50 Z" fill="#FF6B35"/>
    <circle cx="95" cy="60" r="5" fill="white" opacity="0.9"/>
    <circle cx="85" cy="75" r="4" fill="white" opacity="0.9"/>
    <circle cx="100" cy="78" r="4" fill="white" opacity="0.9"/>
    <line x1="95" y1="60" x2="85" y2="75" stroke="white" stroke-width="2" opacity="0.7"/>
    <line x1="95" y1="60" x2="100" y2="78" stroke="white" stroke-width="2" opacity="0.7"/>
    <line x1="85" y1="75" x2="100" y2="78" stroke="white" stroke-width="2" opacity="0.7"/>

    <!-- Lower left (Blue to Pink transition) -->
    <path d="M 45 70 L 50 85 Q 55 95, 65 98 L 75 95 L 75 75 L 70 52 Q 65 60, 60 70 Z" fill="#7B3FF2"/>
    <circle cx="55" cy="82" r="4" fill="white" opacity="0.9"/>
    <circle cx="68" cy="88" r="3" fill="white" opacity="0.8"/>
    <line x1="55" y1="82" x2="68" y2="88" stroke="white" stroke-width="2" opacity="0.7"/>
    <line x1="45" y1="50" x2="55" y2="82" stroke="white" stroke-width="1.5" opacity="0.5"/>

    <!-- Lower center (Pink to Orange transition) -->
    <path d="M 75 95 Q 82 100, 90 98 Q 95 96, 98 90 L 105 85 L 85 90 Z" fill="#FF4081"/>
    <circle cx="88" cy="92" r="3" fill="white" opacity="0.8"/>
    <line x1="68" y1="88" x2="88" y2="92" stroke="white" stroke-width="1.5" opacity="0.6"/>
    <line x1="88" y1="92" x2="100" y2="78" stroke="white" stroke-width="1.5" opacity="0.6"/>
  </g>
</svg>
