<?xml version="1.0" encoding="UTF-8"?>
<svg width="512" height="512" viewBox="0 0 512 512" fill="none" xmlns="http://www.w3.org/2000/svg">
  <defs>
    <linearGradient id="bg" x1="0%" y1="0%" x2="100%" y2="100%">
      <stop offset="0%" style="stop-color:#667eea;stop-opacity:1" />
      <stop offset="100%" style="stop-color:#764ba2;stop-opacity:1" />
    </linearGradient>
    <linearGradient id="accent" x1="100%" y1="0%" x2="0%" y2="100%">
      <stop offset="0%" style="stop-color:#f093fb;stop-opacity:1" />
      <stop offset="100%" style="stop-color:#f5576c;stop-opacity:1" />
    </linearGradient>
    <filter id="shadow">
      <feDropShadow dx="0" dy="4" stdDeviation="8" flood-opacity="0.3"/>
    </filter>
  </defs>

  <!-- Rounded square background for app icon -->
  <rect width="512" height="512" rx="115" fill="url(#bg)"/>

  <!-- Brain/Knowledge symbol - stylized interconnected circles -->

  <!-- Central large circle (hub of knowledge) -->
  <circle cx="256" cy="256" r="70" fill="white" opacity="0.95" filter="url(#shadow)"/>
  <circle cx="256" cy="256" r="60" fill="url(#accent)" opacity="0.2"/>

  <!-- Orbital nodes suggesting neural network -->
  <!-- Top -->
  <circle cx="256" cy="140" r="35" fill="white" opacity="0.9"/>
  <line x1="256" y1="175" x2="256" y2="186" stroke="white" stroke-width="8" opacity="0.6" stroke-linecap="round"/>

  <!-- Top-right -->
  <circle cx="346" cy="190" r="30" fill="white" opacity="0.85"/>
  <line x1="325" y1="210" x2="298" y2="228" stroke="white" stroke-width="7" opacity="0.6" stroke-linecap="round"/>

  <!-- Right -->
  <circle cx="380" cy="256" r="35" fill="white" opacity="0.9"/>
  <line x1="345" y1="256" x2="326" y2="256" stroke="white" stroke-width="8" opacity="0.6" stroke-linecap="round"/>

  <!-- Bottom-right -->
  <circle cx="346" cy="322" r="30" fill="white" opacity="0.85"/>
  <line x1="325" y1="302" x2="298" y2="284" stroke="white" stroke-width="7" opacity="0.6" stroke-linecap="round"/>

  <!-- Bottom -->
  <circle cx="256" cy="372" r="35" fill="white" opacity="0.9"/>
  <line x1="256" y1="337" x2="256" y2="326" stroke="white" stroke-width="8" opacity="0.6" stroke-linecap="round"/>

  <!-- Bottom-left -->
  <circle cx="166" cy="322" r="30" fill="white" opacity="0.85"/>
  <line x1="187" y1="302" x2="214" y2="284" stroke="white" stroke-width="7" opacity="0.6" stroke-linecap="round"/>

  <!-- Left -->
  <circle cx="132" cy="256" r="35" fill="white" opacity="0.9"/>
  <line x1="167" y1="256" x2="186" y2="256" stroke="white" stroke-width="8" opacity="0.6" stroke-linecap="round"/>

  <!-- Top-left -->
  <circle cx="166" cy="190" r="30" fill="white" opacity="0.85"/>
  <line x1="187" y1="210" x2="214" y2="228" stroke="white" stroke-width="7" opacity="0.6" stroke-linecap="round"/>

  <!-- Central spark/synapse symbol -->
  <g opacity="0.9">
    <path d="M 245 245 L 267 267 M 267 245 L 245 267"
          stroke="url(#bg)"
          stroke-width="8"
          stroke-linecap="round"/>
    <circle cx="256" cy="256" r="5" fill="url(#accent)"/>
  </g>

  <!-- Subtle outer glow rings -->
  <circle cx="256" cy="256" r="100" fill="none" stroke="white" stroke-width="2" opacity="0.15"/>
  <circle cx="256" cy="256" r="125" fill="none" stroke="white" stroke-width="1.5" opacity="0.1"/>
</svg>
