<?xml version="1.0" encoding="UTF-8"?>
<svg width="200" height="200" viewBox="0 0 200 200" fill="none" xmlns="http://www.w3.org/2000/svg">
  <!-- Main gradient definition -->
  <defs>
    <linearGradient id="primaryGradient" x1="0%" y1="0%" x2="100%" y2="100%">
      <stop offset="0%" style="stop-color:#667eea;stop-opacity:1" />
      <stop offset="100%" style="stop-color:#764ba2;stop-opacity:1" />
    </linearGradient>
    <linearGradient id="accentGradient" x1="0%" y1="0%" x2="100%" y2="100%">
      <stop offset="0%" style="stop-color:#f093fb;stop-opacity:1" />
      <stop offset="100%" style="stop-color:#f5576c;stop-opacity:1" />
    </linearGradient>
    <filter id="glow">
      <feGaussianBlur stdDeviation="3" result="coloredBlur"/>
      <feMerge>
        <feMergeNode in="coloredBlur"/>
        <feMergeNode in="SourceGraphic"/>
      </feMerge>
    </filter>
  </defs>

  <!-- Background circle (optional, for standalone logo) -->
  <circle cx="100" cy="100" r="95" fill="url(#primaryGradient)" opacity="0.1"/>

  <!-- Neural network visualization - synaptic connections -->

  <!-- Central node (knowledge hub) -->
  <circle cx="100" cy="100" r="20" fill="url(#primaryGradient)" filter="url(#glow)"/>
  <circle cx="100" cy="100" r="16" fill="white" opacity="0.3"/>

  <!-- Outer nodes (representing different learning aspects) -->
  <!-- Top node -->
  <circle cx="100" cy="40" r="12" fill="url(#accentGradient)"/>
  <line x1="100" y1="52" x2="100" y2="80" stroke="url(#primaryGradient)" stroke-width="3" opacity="0.6"/>

  <!-- Top-right node -->
  <circle cx="148" cy="65" r="12" fill="url(#accentGradient)"/>
  <line x1="138" y1="73" x2="112" y2="90" stroke="url(#primaryGradient)" stroke-width="3" opacity="0.6"/>

  <!-- Right node -->
  <circle cx="160" cy="100" r="12" fill="url(#accentGradient)"/>
  <line x1="148" y1="100" x2="120" y2="100" stroke="url(#primaryGradient)" stroke-width="3" opacity="0.6"/>

  <!-- Bottom-right node -->
  <circle cx="148" cy="135" r="12" fill="url(#accentGradient)"/>
  <line x1="138" y1="127" x2="112" y2="110" stroke="url(#primaryGradient)" stroke-width="3" opacity="0.6"/>

  <!-- Bottom node -->
  <circle cx="100" cy="160" r="12" fill="url(#accentGradient)"/>
  <line x1="100" y1="148" x2="100" y2="120" stroke="url(#primaryGradient)" stroke-width="3" opacity="0.6"/>

  <!-- Bottom-left node -->
  <circle cx="52" cy="135" r="12" fill="url(#accentGradient)"/>
  <line x1="62" y1="127" x2="88" y2="110" stroke="url(#primaryGradient)" stroke-width="3" opacity="0.6"/>

  <!-- Left node -->
  <circle cx="40" cy="100" r="12" fill="url(#accentGradient)"/>
  <line x1="52" y1="100" x2="80" y2="100" stroke="url(#primaryGradient)" stroke-width="3" opacity="0.6"/>

  <!-- Top-left node -->
  <circle cx="52" cy="65" r="12" fill="url(#accentGradient)"/>
  <line x1="62" y1="73" x2="88" y2="90" stroke="url(#primaryGradient)" stroke-width="3" opacity="0.6"/>

  <!-- Synaptic spark effect in center -->
  <path d="M 95 95 L 105 105 M 105 95 L 95 105" stroke="white" stroke-width="3" stroke-linecap="round"/>

  <!-- Pulsing energy rings (subtle) -->
  <circle cx="100" cy="100" r="30" fill="none" stroke="url(#primaryGradient)" stroke-width="2" opacity="0.2"/>
  <circle cx="100" cy="100" r="45" fill="none" stroke="url(#primaryGradient)" stroke-width="1.5" opacity="0.15"/>
</svg>
