<?xml version="1.0" encoding="UTF-8"?>
<svg width="200" height="200" viewBox="0 0 200 200" fill="none" xmlns="http://www.w3.org/2000/svg">
  <defs>
    <!-- Clean gradients for minimal aesthetic -->
    <linearGradient id="stellarPurple" x1="0%" y1="0%" x2="100%" y2="100%">
      <stop offset="0%" style="stop-color:#9333EA;stop-opacity:1" />
      <stop offset="100%" style="stop-color:#6B46C1;stop-opacity:1" />
    </linearGradient>

    <linearGradient id="stellarCyan" x1="0%" y1="100%" x2="100%" y2="0%">
      <stop offset="0%" style="stop-color:#14B8A6;stop-opacity:1" />
      <stop offset="100%" style="stop-color:#06B6D4;stop-opacity:1" />
    </linearGradient>

    <!-- Subtle glow -->
    <filter id="starGlow">
      <feGaussianBlur stdDeviation="1.5" result="coloredBlur"/>
      <feMerge>
        <feMergeNode in="coloredBlur"/>
        <feMergeNode in="SourceGraphic"/>
      </feMerge>
    </filter>
  </defs>

  <!-- Constellation pattern - forming abstract "S" or neural network shape -->

  <!-- Connection lines (constellation edges) -->
  <line x1="70" y1="50" x2="100" y2="70" stroke="url(#stellarPurple)" stroke-width="2" opacity="0.4"/>
  <line x1="100" y1="70" x2="130" y2="50" stroke="url(#stellarPurple)" stroke-width="2" opacity="0.4"/>
  <line x1="130" y1="50" x2="150" y2="75" stroke="url(#stellarPurple)" stroke-width="2" opacity="0.4"/>
  <line x1="150" y1="75" x2="140" y2="100" stroke="url(#stellarCyan)" stroke-width="2" opacity="0.5"/>
  <line x1="140" y1="100" x2="100" y2="100" stroke="url(#stellarCyan)" stroke-width="2.5" opacity="0.6"/>
  <line x1="100" y1="100" x2="60" y2="100" stroke="url(#stellarCyan)" stroke-width="2.5" opacity="0.6"/>
  <line x1="60" y1="100" x2="50" y2="125" stroke="url(#stellarCyan)" stroke-width="2" opacity="0.5"/>
  <line x1="50" y1="125" x2="70" y2="150" stroke="url(#stellarPurple)" stroke-width="2" opacity="0.4"/>
  <line x1="70" y1="150" x2="100" y2="130" stroke="url(#stellarPurple)" stroke-width="2" opacity="0.4"/>
  <line x1="100" y1="130" x2="130" y2="150" stroke="url(#stellarPurple)" stroke-width="2" opacity="0.4"/>

  <!-- Cross connections (showing network effect) -->
  <line x1="70" y1="50" x2="60" y2="100" stroke="url(#stellarPurple)" stroke-width="1.5" opacity="0.25"/>
  <line x1="130" y1="50" x2="140" y2="100" stroke="url(#stellarPurple)" stroke-width="1.5" opacity="0.25"/>
  <line x1="70" y1="150" x2="60" y2="100" stroke="url(#stellarPurple)" stroke-width="1.5" opacity="0.25"/>
  <line x1="130" y1="150" x2="140" y2="100" stroke="url(#stellarPurple)" stroke-width="1.5" opacity="0.25"/>
  <line x1="100" y1="70" x2="100" y2="100" stroke="url(#stellarCyan)" stroke-width="1.5" opacity="0.3"/>
  <line x1="100" y1="100" x2="100" y2="130" stroke="url(#stellarCyan)" stroke-width="1.5" opacity="0.3"/>

  <!-- Star nodes (knowledge points) -->
  <!-- Top tier -->
  <circle cx="70" cy="50" r="7" fill="url(#stellarPurple)" filter="url(#starGlow)"/>
  <circle cx="70" cy="50" r="4" fill="white" opacity="0.5"/>

  <circle cx="100" cy="70" r="6" fill="url(#stellarCyan)" opacity="0.9"/>
  <circle cx="100" cy="70" r="3" fill="white" opacity="0.6"/>

  <circle cx="130" cy="50" r="7" fill="url(#stellarPurple)" filter="url(#starGlow)"/>
  <circle cx="130" cy="50" r="4" fill="white" opacity="0.5"/>

  <circle cx="150" cy="75" r="6" fill="url(#stellarCyan)" opacity="0.9"/>
  <circle cx="150" cy="75" r="3" fill="white" opacity="0.6"/>

  <!-- Middle tier - central hub -->
  <circle cx="60" cy="100" r="6" fill="url(#stellarCyan)" opacity="0.9"/>
  <circle cx="60" cy="100" r="3" fill="white" opacity="0.6"/>

  <circle cx="100" cy="100" r="12" fill="url(#stellarPurple)" filter="url(#starGlow)">
    <animate attributeName="opacity" values="1;0.8;1" dur="2s" repeatCount="indefinite" />
  </circle>
  <circle cx="100" cy="100" r="8" fill="url(#stellarCyan)" opacity="0.8"/>
  <circle cx="100" cy="100" r="4" fill="white"/>

  <circle cx="140" cy="100" r="6" fill="url(#stellarCyan)" opacity="0.9"/>
  <circle cx="140" cy="100" r="3" fill="white" opacity="0.6"/>

  <!-- Bottom tier -->
  <circle cx="50" cy="125" r="6" fill="url(#stellarCyan)" opacity="0.9"/>
  <circle cx="50" cy="125" r="3" fill="white" opacity="0.6"/>

  <circle cx="70" cy="150" r="7" fill="url(#stellarPurple)" filter="url(#starGlow)"/>
  <circle cx="70" cy="150" r="4" fill="white" opacity="0.5"/>

  <circle cx="100" cy="130" r="6" fill="url(#stellarCyan)" opacity="0.9"/>
  <circle cx="100" cy="130" r="3" fill="white" opacity="0.6"/>

  <circle cx="130" cy="150" r="7" fill="url(#stellarPurple)" filter="url(#starGlow)"/>
  <circle cx="130" cy="150" r="4" fill="white" opacity="0.5"/>

  <!-- Subtle orbital rings around center -->
  <circle cx="100" cy="100" r="25" fill="none" stroke="url(#stellarCyan)" stroke-width="1" opacity="0.15"/>
  <circle cx="100" cy="100" r="40" fill="none" stroke="url(#stellarPurple)" stroke-width="1" opacity="0.1"/>
</svg>
