<?xml version="1.0" encoding="UTF-8"?>
<svg width="200" height="200" viewBox="0 0 200 200" fill="none" xmlns="http://www.w3.org/2000/svg">
  <defs>
    <!-- Radial gradient for bloom effect -->
    <radialGradient id="bloomCore" cx="50%" cy="50%" r="50%">
      <stop offset="0%" style="stop-color:#9333EA;stop-opacity:1" />
      <stop offset="50%" style="stop-color:#8B5CF6;stop-opacity:0.9" />
      <stop offset="100%" style="stop-color:#6B46C1;stop-opacity:0.6" />
    </radialGradient>

    <!-- Petal gradients -->
    <linearGradient id="petalGrad1" x1="0%" y1="0%" x2="100%" y2="100%">
      <stop offset="0%" style="stop-color:#06B6D4;stop-opacity:0.9" />
      <stop offset="100%" style="stop-color:#14B8A6;stop-opacity:0.7" />
    </linearGradient>

    <linearGradient id="petalGrad2" x1="100%" y1="0%" x2="0%" y2="100%">
      <stop offset="0%" style="stop-color:#9333EA;stop-opacity:0.8" />
      <stop offset="100%" style="stop-color:#6B46C1;stop-opacity:0.6" />
    </linearGradient>

    <!-- Glow effect -->
    <filter id="bloomGlow">
      <feGaussianBlur stdDeviation="3" result="coloredBlur"/>
      <feMerge>
        <feMergeNode in="coloredBlur"/>
        <feMergeNode in="SourceGraphic"/>
      </feMerge>
    </filter>
  </defs>

  <!-- Background glow -->
  <circle cx="100" cy="100" r="90" fill="url(#bloomCore)" opacity="0.15"/>

  <!-- Radiating pathways (8 main branches) -->
  <!-- Branch 1: Top -->
  <path d="M 100 100 L 100 30 Q 100 20, 105 15"
        stroke="url(#petalGrad1)" stroke-width="4" stroke-linecap="round"
        fill="none" opacity="0.7"/>
  <circle cx="100" cy="25" r="6" fill="url(#petalGrad1)" opacity="0.9"/>

  <!-- Branch 2: Top-Right -->
  <path d="M 100 100 L 145 45 Q 152 38, 158 35"
        stroke="url(#petalGrad2)" stroke-width="4" stroke-linecap="round"
        fill="none" opacity="0.7"/>
  <circle cx="148" cy="42" r="6" fill="url(#petalGrad2)" opacity="0.9"/>

  <!-- Branch 3: Right -->
  <path d="M 100 100 L 170 100 Q 180 100, 185 105"
        stroke="url(#petalGrad1)" stroke-width="4" stroke-linecap="round"
        fill="none" opacity="0.7"/>
  <circle cx="175" cy="100" r="6" fill="url(#petalGrad1)" opacity="0.9"/>

  <!-- Branch 4: Bottom-Right -->
  <path d="M 100 100 L 145 155 Q 152 162, 158 165"
        stroke="url(#petalGrad2)" stroke-width="4" stroke-linecap="round"
        fill="none" opacity="0.7"/>
  <circle cx="148" cy="158" r="6" fill="url(#petalGrad2)" opacity="0.9"/>

  <!-- Branch 5: Bottom -->
  <path d="M 100 100 L 100 170 Q 100 180, 105 185"
        stroke="url(#petalGrad1)" stroke-width="4" stroke-linecap="round"
        fill="none" opacity="0.7"/>
  <circle cx="100" cy="175" r="6" fill="url(#petalGrad1)" opacity="0.9"/>

  <!-- Branch 6: Bottom-Left -->
  <path d="M 100 100 L 55 155 Q 48 162, 42 165"
        stroke="url(#petalGrad2)" stroke-width="4" stroke-linecap="round"
        fill="none" opacity="0.7"/>
  <circle cx="52" cy="158" r="6" fill="url(#petalGrad2)" opacity="0.9"/>

  <!-- Branch 7: Left -->
  <path d="M 100 100 L 30 100 Q 20 100, 15 105"
        stroke="url(#petalGrad1)" stroke-width="4" stroke-linecap="round"
        fill="none" opacity="0.7"/>
  <circle cx="25" cy="100" r="6" fill="url(#petalGrad1)" opacity="0.9"/>

  <!-- Branch 8: Top-Left -->
  <path d="M 100 100 L 55 45 Q 48 38, 42 35"
        stroke="url(#petalGrad2)" stroke-width="4" stroke-linecap="round"
        fill="none" opacity="0.7"/>
  <circle cx="52" cy="42" r="6" fill="url(#petalGrad2)" opacity="0.9"/>

  <!-- Secondary smaller branches (in-between main branches) -->
  <line x1="100" y1="100" x2="122" y2="33" stroke="url(#petalGrad1)" stroke-width="2.5" opacity="0.4" stroke-linecap="round"/>
  <circle cx="122" cy="30" r="4" fill="url(#petalGrad1)" opacity="0.6"/>

  <line x1="100" y1="100" x2="167" y2="67" stroke="url(#petalGrad2)" stroke-width="2.5" opacity="0.4" stroke-linecap="round"/>
  <circle cx="170" cy="64" r="4" fill="url(#petalGrad2)" opacity="0.6"/>

  <line x1="100" y1="100" x2="167" y2="133" stroke="url(#petalGrad1)" stroke-width="2.5" opacity="0.4" stroke-linecap="round"/>
  <circle cx="170" cy="136" r="4" fill="url(#petalGrad1)" opacity="0.6"/>

  <line x1="100" y1="100" x2="122" y2="167" stroke="url(#petalGrad2)" stroke-width="2.5" opacity="0.4" stroke-linecap="round"/>
  <circle cx="122" cy="170" r="4" fill="url(#petalGrad2)" opacity="0.6"/>

  <line x1="100" y1="100" x2="78" y2="167" stroke="url(#petalGrad1)" stroke-width="2.5" opacity="0.4" stroke-linecap="round"/>
  <circle cx="78" cy="170" r="4" fill="url(#petalGrad1)" opacity="0.6"/>

  <line x1="100" y1="100" x2="33" y2="133" stroke="url(#petalGrad2)" stroke-width="2.5" opacity="0.4" stroke-linecap="round"/>
  <circle cx="30" cy="136" r="4" fill="url(#petalGrad2)" opacity="0.6"/>

  <line x1="100" y1="100" x2="33" y2="67" stroke="url(#petalGrad1)" stroke-width="2.5" opacity="0.4" stroke-linecap="round"/>
  <circle cx="30" cy="64" r="4" fill="url(#petalGrad1)" opacity="0.6"/>

  <line x1="100" y1="100" x2="78" y2="33" stroke="url(#petalGrad2)" stroke-width="2.5" opacity="0.4" stroke-linecap="round"/>
  <circle cx="78" cy="30" r="4" fill="url(#petalGrad2)" opacity="0.6"/>

  <!-- Central core - the learning hub -->
  <circle cx="100" cy="100" r="25" fill="url(#bloomCore)" filter="url(#bloomGlow)"/>
  <circle cx="100" cy="100" r="20" fill="url(#bloomCore)" opacity="0.8"/>
  <circle cx="100" cy="100" r="12" fill="#9333EA"/>
  <circle cx="100" cy="100" r="8" fill="white" opacity="0.4"/>

  <!-- Pulsing animation on core -->
  <circle cx="100" cy="100" r="20" fill="none" stroke="#9333EA" stroke-width="2" opacity="0.3">
    <animate attributeName="r" values="20;28;20" dur="3s" repeatCount="indefinite" />
    <animate attributeName="opacity" values="0.3;0;0.3" dur="3s" repeatCount="indefinite" />
  </circle>
</svg>
